<svg id="Layer_1" enable-background="new 0 0 510 510" height="512" viewBox="0 0 510 510" width="512" xmlns="http://www.w3.org/2000/svg"><g id="XMLID_3804_"><path id="XMLID_3847_" d="m30 390v120h225l10-60-10-60z" fill="#33c4e9"/><path id="XMLID_3845_" d="m255 390h225v120h-225z" fill="#11a7f3"/><g id="XMLID_3841_"><g><path id="XMLID_147_" d="m90 435h30v30h-30z" fill="#f1f1f1"/></g></g><g id="XMLID_3837_"><g><path id="XMLID_148_" d="m150 435h30v30h-30z" fill="#f1f1f1"/></g></g><g id="XMLID_3833_"><g><path id="XMLID_151_" d="m210 435h30v30h-30z" fill="#f1f1f1"/></g></g><g id="XMLID_3829_"><g><path id="XMLID_153_" d="m270 435h30v30h-30z" fill="#d6d6ea"/></g></g><g id="XMLID_3825_"><g><path id="XMLID_155_" d="m330 435h30v30h-30z" fill="#d6d6ea"/></g></g><g id="XMLID_3821_"><g><path id="XMLID_157_" d="m390 435h30v30h-30z" fill="#d6d6ea"/></g></g><path id="XMLID_3818_" d="m150 105v45l13.999 10 16.001-10v-45c0-41.355 33.645-75 75-75l10-15-10-15c-57.897 0-105 47.103-105 105z" fill="#555a67"/><path id="XMLID_3816_" d="m255 0v30c41.355 0 75 33.645 75 75v45l16 10 14-10v-45c0-57.897-47.103-105-105-105z" fill="#414952"/><path id="XMLID_3814_" d="m120 300v30h135l10-15-10-15-60-10z" fill="#ff415b"/><path id="XMLID_3812_" d="m120 150v150h135l10-65-10-85z" fill="#ff7c48"/><path id="XMLID_3810_" d="m390 300-67.5-10-67.5 10v30h135z" fill="#e40057"/><path id="XMLID_3808_" d="m255 150h135v150h-135z" fill="#ff415b"/><path id="XMLID_3807_" d="m240 225v30h15l10-15-10-15z" fill="#ffd92e"/><path id="XMLID_3805_" d="m255 225h15v30h-15z" fill="#fcbe00"/></g></svg>